<?xml version="1.0" encoding="UTF-8" standalone="no"?>
<svg
   xmlns:dc="http://purl.org/dc/elements/1.1/"
   xmlns:cc="http://creativecommons.org/ns#"
   xmlns:rdf="http://www.w3.org/1999/02/22-rdf-syntax-ns#"
   xmlns:svg="http://www.w3.org/2000/svg"
   xmlns="http://www.w3.org/2000/svg"
   xmlns:sodipodi="http://sodipodi.sourceforge.net/DTD/sodipodi-0.dtd"
   xmlns:inkscape="http://www.inkscape.org/namespaces/inkscape"
   version="1.0"
   width="1023.000000pt"
   height="731.000000pt"
   viewBox="0 0 1023.000000 731.000000"
   preserveAspectRatio="xMidYMid meet"
   id="svg12"
   sodipodi:docname="logo.svg"
   inkscape:version="0.92.4 (5da689c313, 2019-01-14)">
  <metadata
     id="metadata18">
    <rdf:RDF>
      <cc:Work
         rdf:about="">
        <dc:format>image/svg+xml</dc:format>
        <dc:type
           rdf:resource="http://purl.org/dc/dcmitype/StillImage" />
      </cc:Work>
    </rdf:RDF>
  </metadata>
  <defs
     id="defs16" />
  <sodipodi:namedview
     pagecolor="#ffffff"
     bordercolor="#666666"
     borderopacity="1"
     objecttolerance="10"
     gridtolerance="10"
     guidetolerance="10"
     inkscape:pageopacity="0"
     inkscape:pageshadow="2"
     inkscape:window-width="1002"
     inkscape:window-height="654"
     id="namedview14"
     showgrid="false"
     inkscape:zoom="0.21627566"
     inkscape:cx="1042.6508"
     inkscape:cy="487.33333"
     inkscape:window-x="768"
     inkscape:window-y="327"
     inkscape:window-maximized="0"
     inkscape:current-layer="svg12" />
  <g
     transform="matrix(0.10501082,0,0,-0.12054045,-25.63317,806.08949)"
     id="g10"
     style="fill:#2f3c7e;fill-opacity:1;stroke:none">
    <path
       d="m 794,6005 c -223,-39 -415,-158 -479,-297 -98,-211 -28,-528 172,-777 93,-116 277,-288 389,-363 281,-188 444,-248 672,-248 184,0 367,61 511,169 30,22 70,46 89,52 45,15 151,7 222,-17 l 55,-19 -5,-65 c -10,-125 -2,-366 14,-479 65,-441 283,-895 604,-1257 409,-463 1138,-971 1794,-1250 173,-74 418,-155 488,-161 64,-6 284,19 412,47 115,25 250,61 245,66 -2,2 -55,22 -118,44 -435,154 -1011,417 -1457,664 -166,92 -399,230 -415,246 -5,4 13,11 40,15 182,27 493,179 880,431 65,43 123,77 128,77 6,0 82,-48 170,-106 489,-324 813,-453 986,-392 128,45 183,199 115,322 -78,141 -318,309 -678,474 -54,24 -98,46 -97,49 0,11 637,441 784,529 78,47 1052,561 1063,561 7,0 -9,-110 -33,-230 -123,-604 -325,-1039 -675,-1446 -123,-143 -314,-309 -551,-476 -35,-26 154,62 306,141 357,185 669,428 869,675 247,306 372,597 478,1110 33,164 41,225 43,331 l 3,130 74,29 c 50,19 98,30 153,33 71,5 91,1 175,-27 137,-46 276,-52 413,-16 133,34 211,69 662,292 459,227 665,350 665,398 0,37 -68,10 -436,-173 -208,-104 -402,-198 -431,-211 -66,-28 -97,-24 -101,12 -3,24 5,32 55,64 31,21 136,80 233,132 96,52 191,105 210,117 19,12 98,54 176,94 188,96 246,151 168,159 -21,2 -126,-46 -399,-182 -399,-199 -478,-236 -504,-236 -40,0 -55,54 -23,82 28,25 313,184 693,387 117,63 177,110 165,130 -19,31 -81,6 -466,-188 -218,-109 -415,-205 -438,-211 -48,-15 -72,-3 -72,36 0,32 46,64 234,166 83,45 196,107 251,138 55,31 151,83 213,115 62,32 129,73 150,91 34,30 36,34 21,49 -24,25 -46,16 -429,-177 -379,-190 -491,-241 -513,-232 -22,8 -31,42 -16,60 16,19 147,97 284,169 61,32 146,79 190,105 44,25 123,68 175,94 126,64 160,84 193,114 64,59 10,69 -116,20 -109,-41 -438,-209 -662,-337 -99,-57 -216,-124 -260,-149 -291,-167 -407,-289 -480,-510 -20,-62 -51,-134 -69,-160 -33,-47 -143,-145 -159,-139 -4,1 -22,43 -38,92 -212,631 -1018,1043 -1623,828 -76,-27 -233,-109 -281,-147 -29,-23 -28,-23 57,5 221,72 478,63 736,-25 311,-107 551,-330 661,-616 33,-85 71,-256 71,-319 0,-47 61,-11 -575,-342 -468,-245 -565,-291 -806,-387 -220,-88 -934,-352 -951,-352 -14,0 -572,213 -858,327 -249,99 -466,200 -686,319 -301,161 -829,447 -832,450 -6,4 18,197 39,307 49,268 163,471 324,582 30,21 55,40 55,42 0,3 -41,-17 -91,-44 -249,-131 -432,-358 -514,-638 -15,-49 -29,-97 -32,-105 -3,-11 -22,3 -63,47 -69,73 -96,144 -87,224 3,26 1,92 -4,146 -26,248 -154,467 -363,619 -80,58 -314,173 -443,218 -226,78 -522,112 -699,81 z M 2794,4311 c 405,-215 846,-455 922,-501 192,-118 816,-553 823,-574 1,-5 -53,-34 -121,-66 -228,-104 -338,-163 -456,-242 -94,-63 -193,-160 -222,-218 -13,-25 -26,-71 -29,-103 l -6,-58 -92,81 c -112,97 -315,323 -431,479 -203,272 -354,558 -432,821 -45,153 -93,440 -74,440 4,0 57,-27 118,-59 z"
       id="path2"
       inkscape:connector-curvature="0"
       style="fill:#2f3c7e;fill-opacity:1" />
    <path
       d="m 3476,5569 c -115,-13 -207,-39 -286,-81 -84,-44 -211,-137 -233,-171 -13,-19 -6,-18 62,15 209,102 539,124 787,52 300,-86 633,-332 860,-635 65,-86 146,-218 175,-284 l 20,-46 46,93 c 24,51 63,119 84,151 l 40,58 -25,44 c -56,95 -184,255 -285,356 -251,250 -520,401 -791,445 -91,15 -339,17 -454,3 z"
       id="path4"
       inkscape:connector-curvature="0"
       style="fill:#2f3c7e;fill-opacity:1" />
    <path
       d="m 5712,5383 c -158,-92 -298,-211 -425,-362 -141,-168 -206,-267 -366,-560 -178,-326 -207,-463 -120,-551 124,-123 288,-94 354,63 20,47 20,47 -13,47 -38,0 -101,45 -118,86 -43,103 2,239 199,591 178,319 330,517 527,686 30,26 52,47 49,47 -2,0 -42,-21 -87,-47 z"
       id="path6"
       inkscape:connector-curvature="0"
       style="fill:#2f3c7e;fill-opacity:1" />
    <path
       d="m 5120,4453 c -36,-78 -62,-175 -67,-249 -6,-88 2,-113 43,-140 21,-14 31,-15 63,-5 35,10 39,14 44,56 4,24 2,82 -4,127 -11,89 -48,238 -59,238 -4,0 -13,-12 -20,-27 z"
       id="path8"
       inkscape:connector-curvature="0"
       style="fill:#2f3c7e;fill-opacity:1" />
  </g>
</svg>
